<svg width="1400" height="780" viewBox="0 0 1400 780" fill="none" xmlns="http://www.w3.org/2000/svg">
  <rect width="1400" height="780" rx="22" fill="#111827"/>
  <rect x="24" y="24" width="1352" height="732" rx="18" fill="#0B1220" stroke="#1F2937"/>

  <g transform="translate(320 350)">
    <circle cx="0" cy="0" r="170" stroke="#1F2937" stroke-width="18"/>
    <path d="M -146 -84 A 170 170 0 0 1 0 -170" stroke="#F59E0B" stroke-width="18" stroke-linecap="round"/>
    <path d="M 0 -170 A 170 170 0 0 1 146 -84" stroke="#10B981" stroke-width="18" stroke-linecap="round"/>
    <path d="M 146 84 A 170 170 0 0 1 0 170" stroke="#10B981" stroke-width="18" stroke-linecap="round"/>
    <path d="M 0 170 A 170 170 0 0 1 -146 84" stroke="#10B981" stroke-width="18" stroke-linecap="round"/>
    <text x="-42" y="24" font-family="Courier New, monospace" font-size="80" font-weight="700" fill="#10B981">93</text>
    <text x="-144" y="238" font-family="Arial, Helvetica, sans-serif" font-size="52" fill="#F3F4F6">Performance</text>
  </g>

  <line x1="700" y1="220" x2="700" y2="616" stroke="#374151"/>

  <g transform="translate(900 170)">
    <rect x="0" y="0" width="320" height="460" rx="22" fill="#101827" stroke="#475569"/>
    <rect x="16" y="16" width="288" height="428" rx="14" fill="url(#screenGrad)"/>
    <rect x="34" y="42" width="252" height="18" rx="9" fill="#1E293B"/>
    <text x="38" y="56" font-family="Arial, Helvetica, sans-serif" font-size="10" font-weight="700" fill="#CBD5E1">Flowdesk Analytics</text>

    <rect x="34" y="78" width="78" height="22" rx="11" fill="#1D4ED8" fill-opacity="0.22"/>
    <text x="48" y="93" font-family="Arial, Helvetica, sans-serif" font-size="10" fill="#BFDBFE">Overview</text>
    <rect x="118" y="78" width="78" height="22" rx="11" fill="#0F172A" stroke="#334155"/>
    <text x="133" y="93" font-family="Arial, Helvetica, sans-serif" font-size="10" fill="#94A3B8">Sessions</text>
    <rect x="202" y="78" width="78" height="22" rx="11" fill="#0F172A" stroke="#334155"/>
    <text x="218" y="93" font-family="Arial, Helvetica, sans-serif" font-size="10" fill="#94A3B8">Funnels</text>

    <rect x="34" y="118" width="252" height="84" rx="14" fill="#0B1326" stroke="#334155"/>
    <polyline points="48,184 84,166 122,172 160,144 198,156 236,130 272,138" fill="none" stroke="#22D3EE" stroke-width="3" stroke-linecap="round" stroke-linejoin="round"/>
    <polyline points="48,192 84,182 122,176 160,174 198,166 236,162 272,158" fill="none" stroke="#22C55E" stroke-width="3" stroke-linecap="round" stroke-linejoin="round"/>

    <rect x="34" y="218" width="120" height="62" rx="12" fill="#0F172A" stroke="#334155"/>
    <text x="46" y="240" font-family="Arial, Helvetica, sans-serif" font-size="9" fill="#94A3B8">Conversion</text>
    <text x="46" y="266" font-family="Courier New, monospace" font-size="22" font-weight="700" fill="#22C55E">4.8%</text>

    <rect x="166" y="218" width="120" height="62" rx="12" fill="#0F172A" stroke="#334155"/>
    <text x="178" y="240" font-family="Arial, Helvetica, sans-serif" font-size="9" fill="#94A3B8">Bounce Rate</text>
    <text x="178" y="266" font-family="Courier New, monospace" font-size="22" font-weight="700" fill="#F59E0B">31%</text>

    <rect x="34" y="296" width="252" height="90" rx="14" fill="#0F172A" stroke="#334155"/>
    <text x="46" y="320" font-family="Arial, Helvetica, sans-serif" font-size="9" fill="#94A3B8">Top Insight</text>
    <text x="46" y="344" font-family="Arial, Helvetica, sans-serif" font-size="12" font-weight="700" fill="#E2E8F0">Header clarity improved clickthrough</text>
    <rect x="46" y="358" width="150" height="10" rx="5" fill="#1E293B"/>
    <rect x="46" y="358" width="103" height="10" rx="5" fill="#22C55E"/>
    <text x="204" y="366" font-family="Arial, Helvetica, sans-serif" font-size="8" fill="#94A3B8">68% confidence</text>
  </g>

  <text x="74" y="664" font-family="Arial, Helvetica, sans-serif" font-size="30" fill="#9CA3AF">Detailed score screen + site view sent with your manual audit.</text>

  <defs>
    <linearGradient id="screenGrad" x1="16" y1="16" x2="304" y2="444" gradientUnits="userSpaceOnUse">
      <stop stop-color="#1D4ED8"/>
      <stop offset="1" stop-color="#0F172A"/>
    </linearGradient>
  </defs>
</svg>